<svg width="61" height="60" viewBox="0 0 61 60" fill="none" xmlns="http://www.w3.org/2000/svg">
<g opacity="0.2">
<path d="M23.5365 30C23.5365 31.7405 24.2279 33.4097 25.4586 34.6404C26.6893 35.8711 28.3585 36.5625 30.099 36.5625C31.8395 36.5625 33.5087 35.8711 34.7394 34.6404C35.9701 33.4097 36.6615 31.7405 36.6615 30C36.6615 28.2595 35.9701 26.5903 34.7394 25.3596C33.5087 24.1289 31.8395 23.4375 30.099 23.4375C28.3585 23.4375 26.6893 24.1289 25.4586 25.3596C24.2279 26.5903 23.5365 28.2595 23.5365 30V30ZM55.5404 28.4883C49.9857 16.7871 41.5892 10.8984 30.3333 10.8984C19.0716 10.8984 10.681 16.7871 5.12632 28.4941C4.90351 28.9659 4.78796 29.4812 4.78796 30.0029C4.78796 30.5247 4.90351 31.0399 5.12632 31.5117C10.681 43.2129 19.0775 49.1016 30.3333 49.1016C41.5951 49.1016 49.9857 43.2129 55.5404 31.5059C55.9916 30.5566 55.9916 29.4551 55.5404 28.4883V28.4883ZM30.099 40.3125C24.4037 40.3125 19.7865 35.6953 19.7865 30C19.7865 24.3047 24.4037 19.6875 30.099 19.6875C35.7943 19.6875 40.4115 24.3047 40.4115 30C40.4115 35.6953 35.7943 40.3125 30.099 40.3125Z" fill="#0857E0"/>
</g>
</svg>
