<svg width="279" height="80" viewBox="0 0 279 80" fill="none" xmlns="http://www.w3.org/2000/svg">
<g clip-path="url(#clip0_1951_41664)">
<path d="M205.736 60.5966C196.208 60.5966 190.288 55.0221 190.288 46.0366C190.288 36.7112 195.751 30.9094 204.548 30.9094H205.286C206.389 30.9094 207.908 30.9457 209.984 31.2075V19.9512H216.197V59.5821C216.197 59.5821 210.293 60.5966 205.736 60.5966ZM205.68 35.8512C199.661 35.8512 196.734 39.133 196.734 45.8803C196.734 51.9384 200.266 55.7039 205.939 55.7039C207.03 55.7039 208.279 55.6312 209.982 55.4839V36.2548C208.281 35.9784 206.909 35.8512 205.68 35.8512V35.8512ZM120.623 59.6875L103.838 30.1003L103.832 59.6875H97.9824V22.2312H106.172L122.957 51.5548L122.95 22.2312H128.878V59.6875H120.623ZM174.088 60.2639C171.262 60.2639 168.316 59.9439 164.807 59.2621L164.428 59.1894V53.9566L164.982 54.0766C168.076 54.7439 170.747 55.313 173.42 55.313C175.579 55.313 180.606 54.9712 180.606 51.7621C180.606 49.0712 177.132 48.3948 174.342 47.8548L174.166 47.8184C173.644 47.7203 173.152 47.6203 172.738 47.5148C168.645 46.4421 164.278 44.8294 164.278 39.2894C164.278 33.8857 168.512 30.7894 175.895 30.7894C179.44 30.7894 182.012 31.1712 184.08 31.4839L185.084 31.633V36.7112L184.55 36.613C182.21 36.1784 179.467 35.7312 176.83 35.7312C173.897 35.7312 170.418 36.2857 170.418 38.9203C170.418 41.1075 173.266 41.733 176.563 42.4584C181.175 43.4657 186.892 44.7312 186.892 51.0875C186.892 56.9184 182.23 60.2639 174.088 60.2639ZM233.641 60.2639C227.21 60.2639 221.254 59.1184 221.254 50.8239C221.254 41.7966 230.464 41.7966 235.97 41.7966C236.518 41.7966 239.106 41.9184 239.9 41.953C239.893 36.8894 239.83 35.6821 232.559 35.6821C229.678 35.6821 226.477 36.2566 223.651 36.7694L223.111 36.8675V31.8675L223.475 31.7894C226.751 31.1166 229.91 30.7894 233.13 30.7894C240.175 30.7894 246.144 31.5057 246.144 40.3348V59.5893L245.716 59.6384C240.836 60.1912 236.962 60.2639 233.643 60.2639H233.641ZM235.816 46.2639C230.506 46.2639 227.215 47.053 227.215 50.9803C227.215 55.5257 231.413 55.9021 235.351 55.9021C236.82 55.9021 239.464 55.7112 240.272 55.653V46.4203C239.135 46.3712 236.174 46.2639 235.816 46.2639V46.2639ZM146.455 60.2639C140.014 60.2639 134.06 59.1184 134.06 50.8239C134.06 41.7966 143.27 41.7966 148.775 41.7966C149.324 41.7966 151.918 41.9184 152.713 41.953C152.706 36.8894 152.636 35.6821 145.366 35.6821C142.482 35.6821 139.282 36.2566 136.456 36.7694L135.916 36.8675V31.8675L136.288 31.7894C139.462 31.1264 142.695 30.7913 145.936 30.7894C152.98 30.7894 158.95 31.5057 158.95 40.3348V59.5893L158.52 59.6384C153.642 60.1912 149.767 60.2639 146.455 60.2639V60.2639ZM148.62 46.2639C143.312 46.2639 140.029 47.053 140.029 50.9803C140.029 55.5257 144.219 55.9021 148.157 55.9021C149.633 55.9021 152.278 55.7112 153.086 55.653V46.4203C151.939 46.3712 148.98 46.2639 148.622 46.2639" fill="white" fill-opacity="0.3"/>
<path d="M270.885 72.4148V60.1275C268.46 60.4693 267.173 60.4693 266.133 60.4693C263.67 60.4693 260.936 59.9293 258.819 59.0275C254.08 57.0366 251.254 51.982 251.254 45.4966C251.254 42.2602 252.035 36.342 257.259 33.153C259.881 31.5711 262.976 30.8948 267.63 30.8948C269.295 30.8948 271.545 31.022 273.718 31.1493L277.248 31.3348V69.5675L270.885 72.4148V72.4148ZM267.166 35.8384C260.852 35.8366 257.651 39.0911 257.651 45.4966C257.651 53.7439 262.425 55.4766 266.439 55.4766C267.416 55.4766 268.514 55.4766 270.946 55.1639V36.0166C269.041 35.8893 268.161 35.8384 267.164 35.8384H267.166Z" fill="white" fill-opacity="0.3"/>
<path d="M70.2205 0.0292969L49.6681 57.0657C49.414 57.7679 48.9692 58.3837 48.3848 58.8426C47.8003 59.3014 47.0997 59.5848 46.3633 59.6602V59.6875H68.0893C69.7903 59.6875 71.2465 58.5948 71.7883 57.0675L92.3479 0.0292969H70.2205Z" fill="white" fill-opacity="0.3"/>
<path d="M44.5923 58.822C45.8523 58.822 46.9557 58.1893 47.6307 57.2311C47.7009 57.1311 47.9475 56.782 48.1221 56.3074L55.6605 35.3765L51.2505 23.1529C50.9936 22.5339 50.5776 21.9956 50.0454 21.5937C49.5133 21.1917 48.8844 20.9409 48.224 20.8671C47.5635 20.7933 46.8956 20.8992 46.2893 21.1739C45.683 21.4485 45.1605 21.882 44.7759 22.4293C44.7039 22.5293 44.4105 22.9747 44.2845 23.3529L36.7461 44.2765L41.1759 56.5493C41.4633 57.2238 41.94 57.7985 42.5471 58.2025C43.1543 58.6064 43.8653 58.8217 44.5923 58.822" fill="white" fill-opacity="0.3"/>
<path d="M46.2025 19.9712H24.2371C22.5361 19.9712 21.0799 21.0585 20.5309 22.593L-0.0214844 79.6294H22.1059L42.6601 22.5948C42.9268 21.8528 43.4061 21.2077 44.0369 20.7418C44.6678 20.2759 45.4216 20.0101 46.2025 19.9785V19.9712Z" fill="white" fill-opacity="0.3"/>
</g>
<defs>
<clipPath id="clip0_1951_41664">
<rect width="279" height="80" fill="white"/>
</clipPath>
</defs>
</svg>
