<svg width="1478" height="667" viewBox="0 0 1478 667" fill="none" xmlns="http://www.w3.org/2000/svg">
<g clip-path="url(#clip0_1959_40377)">
<path d="M1336.24 268.627H1291.57V423.091H1336.24V268.627Z" fill="#F2F2F2"/>
<path d="M1365.74 394.033L1257.09 264.919L1039 266.911L906.706 395.63L909.38 397.346H908.424V665.084H1365.45V397.346L1365.74 394.033Z" fill="#F2F2F2"/>
<path d="M1257.2 265.194L1121.47 424.153V665.084H1365.45V393.914L1257.2 265.194Z" fill="#E6E6E6"/>
<path d="M1269.23 531.846H1219.4V575.838H1269.23V531.846Z" fill="#0D0D0D"/>
<path d="M1269.23 455.7H1219.4V498.994H1269.23V455.7Z" fill="#0D0D0D"/>
<path d="M1269.23 531.846H1219.4V575.838H1269.23V531.846Z" fill="white"/>
<path d="M1269.23 455.7H1219.4V498.994H1269.23V455.7Z" fill="white"/>
<path d="M1047.8 520.173H997.977V564.165H1047.8V520.173Z" fill="white"/>
<path d="M1047.8 444.027H997.977V487.321H1047.8V444.027Z" fill="white"/>
<path d="M983.719 268.627H939.048V423.091H983.719V268.627Z" fill="#F2F2F2"/>
<path d="M1013.22 394.033L904.571 264.919L686.484 266.911L554.188 395.63L556.861 397.346H555.906V665.084H1012.93V397.346L1013.22 394.033Z" fill="#F2F2F2"/>
<path d="M904.685 265.194L768.954 424.153V665.084H1012.93V393.914L904.685 265.194Z" fill="#E6E6E6"/>
<path d="M916.712 531.846H866.887V575.838H916.712V531.846Z" fill="#0D0D0D"/>
<path d="M916.712 455.7H866.887V498.994H916.712V455.7Z" fill="#0D0D0D"/>
<path d="M916.712 531.846H866.887V575.838H916.712V531.846Z" fill="white"/>
<path d="M916.712 455.7H866.887V498.994H916.712V455.7Z" fill="white"/>
<path d="M695.284 520.173H645.458V564.165H695.284V520.173Z" fill="white"/>
<path d="M695.284 444.027H645.458V487.321H695.284V444.027Z" fill="white"/>
<path d="M622.763 135.321H563.071V341.722H622.763V135.321Z" fill="#F2F2F2"/>
<path d="M662.182 302.894L517.003 130.367L225.585 133.028L48.8057 305.029L52.3768 307.322H51.1015V665.084H661.791V307.322L662.182 302.894Z" fill="#F2F2F2"/>
<path d="M517.155 130.734L335.784 343.142V665.084H661.792V302.735L517.155 130.734Z" fill="#E6E6E6"/>
<path d="M533.226 487.045H466.646V545.83H533.226V487.045Z" fill="#0D0D0D"/>
<path d="M533.226 385.296H466.646V443.148H533.226V385.296Z" fill="#0D0D0D"/>
<path d="M533.226 487.045H466.646V545.83H533.226V487.045Z" fill="white"/>
<path d="M533.226 385.296H466.646V443.148H533.226V385.296Z" fill="white"/>
<path d="M237.344 471.447H170.765V530.232H237.344V471.447Z" fill="white"/>
<path d="M237.344 369.698H170.765V427.55H237.344V369.698Z" fill="white"/>
<path d="M1427.77 663.762H0V666.722H1427.77V663.762Z" fill="#0D0D0D"/>
<path d="M224.949 609.354C248.753 609.354 268.05 570.023 268.05 521.506C268.05 472.988 248.753 433.657 224.949 433.657C201.145 433.657 181.848 472.988 181.848 521.506C181.848 570.023 201.145 609.354 224.949 609.354Z" fill="#0D0D0D"/>
<path d="M228.929 665.299C211.666 561.84 228.755 458.755 228.93 457.726L232.287 458.295C232.114 459.318 215.123 561.861 232.288 664.741L228.929 665.299Z" fill="#0857E0"/>
<path d="M262.895 502.615L223.92 523.44L225.526 526.44L264.501 505.616L262.895 502.615Z" fill="#0857E0"/>
<path d="M184.393 513.047L182.785 516.047L221.755 536.883L223.363 533.883L184.393 513.047Z" fill="#0857E0"/>
<path d="M121.389 557.844C167.947 557.844 205.69 480.918 205.69 386.024C205.69 291.13 167.947 214.203 121.389 214.203C74.8315 214.203 37.0889 291.13 37.0889 386.024C37.0889 480.918 74.8315 557.844 121.389 557.844Z" fill="white"/>
<path d="M121.389 557.844C167.947 557.844 205.69 480.918 205.69 386.024C205.69 291.13 167.947 214.203 121.389 214.203C74.8315 214.203 37.0889 291.13 37.0889 386.024C37.0889 480.918 74.8315 557.844 121.389 557.844Z" fill="#0857E0" fill-opacity="0.5"/>
<path d="M130.779 667C97.0613 464.913 130.439 263.562 130.78 261.552L134.138 262.12C133.798 264.125 100.518 464.935 134.139 666.442L130.779 667Z" fill="#0D0D0D"/>
<path d="M196.377 350.51L120.145 391.241L121.751 394.242L197.983 353.51L196.377 350.51Z" fill="#0D0D0D"/>
<path d="M41.2988 370.914L39.6914 373.914L115.912 414.666L117.52 411.666L41.2988 370.914Z" fill="#0D0D0D"/>
<path d="M321.048 517.732C384.759 517.732 436.406 412.464 436.406 282.609C436.406 152.754 384.759 47.4856 321.048 47.4856C257.337 47.4856 205.689 152.754 205.689 282.609C205.689 412.464 257.337 517.732 321.048 517.732Z" fill="white"/>
<path d="M321.048 517.732C384.759 517.732 436.406 412.464 436.406 282.609C436.406 152.754 384.759 47.4856 321.048 47.4856C257.337 47.4856 205.689 152.754 205.689 282.609C205.689 412.464 257.337 517.732 321.048 517.732Z" fill="#0857E0" fill-opacity="0.3"/>
<path d="M334.517 667C288.394 390.562 334.052 115.134 334.518 112.384L337.876 112.952C337.41 115.697 291.851 390.584 337.877 666.442L334.517 667Z" fill="#0D0D0D"/>
<path d="M423.959 234.563L319.642 290.301L321.248 293.301L425.566 237.564L423.959 234.563Z" fill="#0D0D0D"/>
<path d="M211.154 262.485L209.547 265.485L313.85 321.25L315.457 318.25L211.154 262.485Z" fill="#0D0D0D"/>
<path d="M1290.14 609.354C1313.95 609.354 1333.24 570.023 1333.24 521.506C1333.24 472.988 1313.95 433.657 1290.14 433.657C1266.34 433.657 1247.04 472.988 1247.04 521.506C1247.04 570.023 1266.34 609.354 1290.14 609.354Z" fill="#0D0D0D"/>
<path d="M1286.16 665.299C1303.42 561.84 1286.33 458.755 1286.16 457.726L1282.8 458.295C1282.98 459.318 1299.97 561.861 1282.8 664.741L1286.16 665.299Z" fill="#0857E0"/>
<path d="M1252.19 502.615L1250.59 505.616L1289.56 526.44L1291.17 523.44L1252.19 502.615Z" fill="#0857E0"/>
<path d="M1330.7 513.047L1291.73 533.883L1293.33 536.883L1332.3 516.047L1330.7 513.047Z" fill="#0857E0"/>
<path d="M1393.7 557.844C1440.26 557.844 1478 480.918 1478 386.024C1478 291.13 1440.26 214.203 1393.7 214.203C1347.14 214.203 1309.4 291.13 1309.4 386.024C1309.4 480.918 1347.14 557.844 1393.7 557.844Z" fill="white"/>
<path d="M1393.7 557.844C1440.26 557.844 1478 480.918 1478 386.024C1478 291.13 1440.26 214.203 1393.7 214.203C1347.14 214.203 1309.4 291.13 1309.4 386.024C1309.4 480.918 1347.14 557.844 1393.7 557.844Z" fill="#0857E0" fill-opacity="0.5"/>
<path d="M1384.31 667C1418.03 464.913 1384.65 263.562 1384.31 261.552L1380.95 262.12C1381.29 264.125 1414.57 464.935 1380.95 666.442L1384.31 667Z" fill="#0D0D0D"/>
<path d="M1318.71 350.51L1317.11 353.51L1393.34 394.242L1394.94 391.241L1318.71 350.51Z" fill="#0D0D0D"/>
<path d="M1473.79 370.914L1397.57 411.666L1399.18 414.666L1475.4 373.914L1473.79 370.914Z" fill="#0D0D0D"/>
<path d="M1194.04 517.732C1257.75 517.732 1309.4 412.464 1309.4 282.609C1309.4 152.754 1257.75 47.4856 1194.04 47.4856C1130.33 47.4856 1078.68 152.754 1078.68 282.609C1078.68 412.464 1130.33 517.732 1194.04 517.732Z" fill="white"/>
<path d="M1194.04 517.732C1257.75 517.732 1309.4 412.464 1309.4 282.609C1309.4 152.754 1257.75 47.4856 1194.04 47.4856C1130.33 47.4856 1078.68 152.754 1078.68 282.609C1078.68 412.464 1130.33 517.732 1194.04 517.732Z" fill="#0857E0" fill-opacity="0.3"/>
<path d="M1180.57 667C1226.7 390.562 1181.04 115.134 1180.57 112.384L1177.21 112.952C1177.68 115.697 1223.24 390.584 1177.21 666.442L1180.57 667Z" fill="#0D0D0D"/>
<path d="M1091.13 234.563L1089.52 237.564L1193.84 293.301L1195.45 290.301L1091.13 234.563Z" fill="#0D0D0D"/>
<path d="M1303.93 262.485L1199.63 318.25L1201.24 321.25L1305.54 265.485L1303.93 262.485Z" fill="#0D0D0D"/>
<path d="M873.303 150.125L886.938 139.232C876.345 138.064 871.993 143.835 870.212 148.403C861.936 144.97 852.928 149.469 852.928 149.469L880.209 159.362C878.833 155.69 876.437 152.486 873.303 150.125Z" fill="#0D0D0D"/>
<path d="M540.04 53.9536L553.675 43.0599C543.083 41.8925 538.73 47.6632 536.949 52.2308C528.674 48.7982 519.665 53.2968 519.665 53.2968L546.946 63.1902C545.57 59.5181 543.174 56.314 540.04 53.9536Z" fill="#0D0D0D"/>
<path d="M1083.63 11.0463L1097.26 0.152561C1086.67 -1.01482 1082.32 4.75588 1080.54 9.32344C1072.26 5.89085 1063.25 10.3894 1063.25 10.3894L1090.54 20.2828C1089.16 16.6107 1086.76 13.4066 1083.63 11.0463Z" fill="#0D0D0D"/>
<path d="M1111.16 646.647C1107.53 646.646 1103.97 647.601 1100.84 649.413C1097.65 646.535 1093.69 644.642 1089.45 643.965C1085.21 643.288 1080.86 643.856 1076.94 645.6C1073.01 647.344 1069.68 650.188 1067.34 653.788C1065 657.389 1063.76 661.59 1063.76 665.881H1131.82C1131.45 660.66 1129.11 655.772 1125.28 652.203C1121.44 648.635 1116.4 646.649 1111.16 646.647Z" fill="#0D0D0D"/>
<path d="M419.453 646.647C415.828 646.646 412.268 647.601 409.13 649.413C405.943 646.535 401.989 644.642 397.746 643.965C393.504 643.288 389.156 643.856 385.23 645.6C381.304 647.344 377.97 650.188 375.631 653.788C373.292 657.389 372.05 661.59 372.056 665.881H440.115C439.744 660.66 437.406 655.772 433.572 652.203C429.738 648.635 424.693 646.649 419.453 646.647Z" fill="#0D0D0D"/>
<path d="M773.452 646.647C769.827 646.646 766.267 647.601 763.129 649.413C759.942 646.535 755.988 644.642 751.745 643.965C747.503 643.288 743.155 643.856 739.229 645.6C735.303 647.344 731.969 650.188 729.63 653.788C727.292 657.389 726.049 661.59 726.055 665.881H794.114C793.743 660.66 791.405 655.772 787.571 652.203C783.738 648.635 778.693 646.649 773.452 646.647Z" fill="#0D0D0D"/>
<path d="M698.754 598.082H502.398V604.408H533.022V664.517H539.355V604.408H658.629V664.517H664.964V604.408H698.754V598.082Z" fill="#0D0D0D"/>
<path d="M699.141 579.152H502.785V585.48H699.141V579.152Z" fill="#0D0D0D"/>
<path d="M699.141 563.334H502.785V569.661H699.141V563.334Z" fill="#0D0D0D"/>
<path d="M699.141 547.516H502.785V553.843H699.141V547.516Z" fill="#0D0D0D"/>
<path d="M1005.36 598.082H809.001V604.408H839.624V664.517H845.958V604.408H965.232V664.517H971.567V604.408H1005.36V598.082Z" fill="#0D0D0D"/>
<path d="M1005.74 579.152H809.387V585.48H1005.74V579.152Z" fill="#0D0D0D"/>
<path d="M1005.74 563.334H809.387V569.661H1005.74V563.334Z" fill="#0D0D0D"/>
<path d="M1005.74 547.516H809.387V553.843H1005.74V547.516Z" fill="#0D0D0D"/>
</g>
<defs>
<clipPath id="clip0_1959_40377">
<rect width="1478" height="667" fill="white"/>
</clipPath>
</defs>
</svg>
