<svg width="60" height="60" viewBox="0 0 60 60" fill="none" xmlns="http://www.w3.org/2000/svg">
<g opacity="0.2">
<path d="M20.25 30C22.8359 30 25.3158 28.9728 27.1443 27.1443C28.9728 25.3158 30 22.8359 30 20.25C30 17.6641 28.9728 15.1842 27.1443 13.3557C25.3158 11.5272 22.8359 10.5 20.25 10.5C17.6641 10.5 15.1842 11.5272 13.3557 13.3557C11.5272 15.1842 10.5 17.6641 10.5 20.25C10.5 22.8359 11.5272 25.3158 13.3557 27.1443C15.1842 28.9728 17.6641 30 20.25 30V30ZM37.311 45.435C38.901 46.086 40.923 46.5 43.497 46.5C55.497 46.5 55.497 37.5 55.497 37.5C55.497 36.307 55.0233 35.1629 54.18 34.3191C53.3368 33.4753 52.193 33.0008 51 33H37.116C38.295 34.428 39.003 36.255 39.003 38.25V39.318C38.9969 39.5706 38.9798 39.8228 38.952 40.074C38.7496 41.9484 38.1938 43.7675 37.314 45.435H37.311ZM51 22.5C51 24.4891 50.2098 26.3968 48.8033 27.8033C47.3968 29.2098 45.4891 30 43.5 30C41.5109 30 39.6032 29.2098 38.1967 27.8033C36.7902 26.3968 36 24.4891 36 22.5C36 20.5109 36.7902 18.6032 38.1967 17.1967C39.6032 15.7902 41.5109 15 43.5 15C45.4891 15 47.3968 15.7902 48.8033 17.1967C50.2098 18.6032 51 20.5109 51 22.5V22.5ZM4.5 39C4.5 37.4087 5.13214 35.8826 6.25736 34.7574C7.38258 33.6321 8.9087 33 10.5 33H30C31.5913 33 33.1174 33.6321 34.2426 34.7574C35.3679 35.8826 36 37.4087 36 39C36 39 36 51 20.25 51C4.5 51 4.5 39 4.5 39ZM39 39.318L38.991 39.51L38.997 39.318H39Z" fill="#0857E0"/>
</g>
</svg>
