<svg width="133" height="139" viewBox="0 0 133 139" fill="none" xmlns="http://www.w3.org/2000/svg">
<path d="M93.7723 -14.9897L48.5539 3.59561C44.0135 5.46174 41.8453 10.6559 43.7115 15.1963L63.9863 64.5255L59.8755 66.2151C55.3352 68.0812 53.167 73.2754 55.0331 77.8158C56.8993 82.3561 62.0935 84.5243 66.6338 82.6582L115.963 62.3834C120.503 60.5172 122.672 55.323 120.805 50.7827L100.531 1.45342C105.071 -0.412713 107.239 -5.60692 105.373 -10.1473C103.507 -14.6876 98.3127 -16.8558 93.7723 -14.9897Z" fill="#FFD983"/>
<path d="M52.8909 25.839L102.22 5.56417L100.531 1.4534L55.3121 20.0387L50.3566 19.6729L52.8909 25.839Z" fill="#E39F3D"/>
<path d="M48.5539 3.59561C44.0135 5.46174 41.8453 10.6559 43.7115 15.1963L64.4552 65.6663C62.9519 65.4577 61.3801 65.5967 59.8755 66.2151C55.3352 68.0812 53.167 73.2754 55.0331 77.8158C56.8993 82.3561 62.0935 84.5243 66.6338 82.6582C71.1742 80.7921 73.3423 75.5979 71.4762 71.0575L50.7325 20.5875C52.2358 20.7962 53.8076 20.6571 55.3121 20.0387C59.8525 18.1726 62.0207 12.9784 60.1545 8.43801C58.2884 3.89766 53.0942 1.72948 48.5539 3.59561Z" fill="#FFE8B6"/>
<path d="M56.0438 10.1278C56.9765 12.3969 55.8918 14.9955 53.6226 15.9281C51.3535 16.8607 48.7549 15.776 47.8223 13.5069C46.8897 11.2378 47.9744 8.63921 50.2435 7.70656C52.5126 6.77392 55.1112 7.85862 56.0438 10.1278ZM67.3655 72.7473C68.2982 75.0164 67.2135 77.615 64.9443 78.5476C62.6752 79.4802 60.0766 78.3956 59.144 76.1264C58.2113 73.8573 59.296 71.2587 61.5652 70.3261C63.8343 69.3934 66.4329 70.4781 67.3655 72.7473ZM102.333 17.5309C102.8 18.6654 102.259 19.9639 101.123 20.431L64.1259 35.6372C62.9913 36.1035 61.692 35.5611 61.2257 34.4266C60.7594 33.292 61.3017 31.9927 62.4363 31.5264L99.4332 16.3203C100.57 15.8531 101.867 16.3963 102.333 17.5309ZM105.713 25.7524C106.18 26.889 105.639 28.1854 104.502 28.6526L67.505 43.8587C66.3704 44.325 65.072 43.7847 64.6048 42.6481C64.1377 41.5115 64.6809 40.2143 65.8154 39.7479L102.812 24.5418C103.949 24.0746 105.245 24.6158 105.713 25.7524ZM109.092 33.974C109.559 35.1106 109.018 36.407 107.881 36.8741L70.8842 52.0803C69.7496 52.5466 68.4512 52.0063 67.984 50.8697C67.5168 49.733 68.06 48.4358 69.1946 47.9695L106.192 32.7634C107.328 32.2962 108.625 32.8373 109.092 33.974ZM112.471 42.1955C112.938 43.3321 112.397 44.6285 111.26 45.0957L74.2633 60.3018C73.1287 60.7681 71.8303 60.2278 71.3631 59.0912C70.896 57.9546 71.4392 56.6573 72.5737 56.191L109.571 40.9849C110.707 40.5177 112.004 41.0589 112.471 42.1955Z" fill="#C1694F"/>
<path d="M72.1654 54.5498L35.7055 43.3474C32.0446 42.2226 28.1644 44.2787 27.0396 47.9396L14.8188 87.7141L11.5043 86.6956C7.84336 85.5708 3.96322 87.627 2.83839 91.2879C1.71357 94.9488 3.76975 98.829 7.43066 99.9538L47.2051 112.175C50.866 113.299 54.7461 111.243 55.8709 107.582L68.0918 67.8079C71.7527 68.9328 75.6328 66.8766 76.7576 63.2157C77.8824 59.5548 75.8263 55.6746 72.1654 54.5498Z" fill="#FFD983"/>
<path d="M27.299 58.902L67.0734 71.1228L68.0918 67.8083L31.6319 56.6058L28.8266 53.9302L27.299 58.902Z" fill="#E39F3D"/>
<path d="M35.7055 43.3474C32.0446 42.2226 28.1644 44.2787 27.0396 47.9396L14.5362 88.6338C13.7336 87.7633 12.7174 87.0684 11.5043 86.6956C7.84336 85.5708 3.96322 87.627 2.83839 91.2879C1.71357 94.9488 3.76975 98.829 7.43066 99.9538C11.0916 101.079 14.9717 99.0224 16.0965 95.3615L28.5999 54.6673C29.4026 55.5379 30.4188 56.2328 31.6319 56.6055C35.2928 57.7303 39.1729 55.6742 40.2977 52.0132C41.4226 48.3523 39.3664 44.4722 35.7055 43.3474Z" fill="#FFE8B6"/>
<path d="M36.9833 50.9949C36.4211 52.8245 34.48 53.8532 32.6503 53.2911C30.8207 52.7289 29.7921 50.7877 30.3542 48.9581C30.9164 47.1285 32.8575 46.0998 34.6872 46.662C36.5168 47.2241 37.5454 49.1653 36.9833 50.9949ZM12.7821 94.3432C12.2199 96.1728 10.2788 97.2015 8.44913 96.6393C6.61951 96.0772 5.59084 94.136 6.153 92.3064C6.71515 90.4768 8.65631 89.4481 10.4859 90.0103C12.3156 90.5724 13.3442 92.5136 12.7821 94.3432ZM61.2129 78.3905C60.9318 79.3053 59.9629 79.8201 59.0464 79.5385L29.2156 70.3729C28.3008 70.0918 27.7865 69.1213 28.0675 68.2065C28.3486 67.2916 29.3192 66.7773 30.234 67.0584L60.0648 76.224C60.9813 76.5056 61.494 77.4757 61.2129 78.3905ZM59.1761 85.0195C58.8945 85.936 57.9261 86.4492 57.0096 86.1676L27.1788 77.002C26.264 76.7209 25.7492 75.752 26.0307 74.8355C26.3123 73.9191 27.2824 73.4064 28.1972 73.6875L58.028 82.8531C58.9445 83.1347 59.4577 84.1031 59.1761 85.0195ZM57.1393 91.6486C56.8577 92.5651 55.8893 93.0783 54.9728 92.7967L25.142 83.6311C24.2272 83.35 23.7124 82.3811 23.9939 81.4646C24.2755 80.5481 25.2456 80.0354 26.1604 80.3165L55.9912 89.4821C56.9077 89.7637 57.4209 90.7321 57.1393 91.6486ZM55.1025 98.2777C54.8209 99.1941 53.8525 99.7073 52.936 99.4257L23.1052 90.2601C22.1904 89.979 21.6755 89.0101 21.9571 88.0937C22.2387 87.1772 23.2088 86.6645 24.1236 86.9456L53.9544 96.1112C54.8709 96.3928 55.3841 97.3612 55.1025 98.2777Z" fill="#C1694F"/>
<path d="M89.9373 83.4025L59.7304 87.6432C56.6974 88.069 54.5835 90.8734 55.0093 93.9064L59.6355 126.859L56.8894 127.245C53.8564 127.671 51.7425 130.475 52.1683 133.508C52.5941 136.541 55.3985 138.655 58.4315 138.229L91.3845 133.603C94.4175 133.177 96.5314 130.373 96.1056 127.34L91.4794 94.3868C94.5124 93.961 96.6263 91.1566 96.2005 88.1236C95.7747 85.0906 92.9703 82.9767 89.9373 83.4025Z" fill="#FFD983"/>
<path d="M58.9121 101.759L91.8651 97.133L91.4796 94.3869L61.2727 98.6277L58.3339 97.6401L58.9121 101.759Z" fill="#E39F3D"/>
<path d="M59.7304 87.6432C56.6974 88.069 54.5835 90.8734 55.0093 93.9064L59.7425 127.621C58.8661 127.263 57.8945 127.104 56.8894 127.245C53.8564 127.671 51.7425 130.475 52.1683 133.508C52.5941 136.541 55.3985 138.655 58.4315 138.229C61.4646 137.803 63.5784 134.999 63.1526 131.966L58.4194 98.251C59.2958 98.6096 60.2674 98.7686 61.2725 98.6275C64.3055 98.2017 66.4194 95.3974 65.9936 92.3643C65.5678 89.3313 62.7634 87.2174 59.7304 87.6432Z" fill="#FFE8B6"/>
<path d="M63.2476 92.7501C63.4604 94.266 62.4029 95.6689 60.8871 95.8817C59.3712 96.0945 57.9683 95.037 57.7555 93.5212C57.5427 92.0053 58.6002 90.6024 60.116 90.3896C61.6319 90.1768 63.0348 91.2343 63.2476 92.7501ZM60.4067 132.352C60.6195 133.868 59.5619 135.271 58.0461 135.483C56.5303 135.696 55.1273 134.639 54.9145 133.123C54.7017 131.607 55.7592 130.204 57.2751 129.991C58.7909 129.778 60.1939 130.836 60.4067 132.352ZM90.0827 104.384C90.1891 105.142 89.6617 105.843 88.9024 105.95L64.1877 109.419C63.4298 109.526 62.7283 108.997 62.6219 108.239C62.5155 107.481 63.0443 106.78 63.8022 106.673L88.5169 103.204C89.2762 103.097 89.9763 103.626 90.0827 104.384ZM90.8538 109.876C90.9603 110.635 90.4328 111.335 89.6735 111.442L64.9588 114.912C64.2008 115.018 63.4995 114.491 63.393 113.731C63.2864 112.972 63.8153 112.272 64.5732 112.165L89.288 108.696C90.0472 108.589 90.7472 109.117 90.8538 109.876ZM91.6248 115.368C91.7314 116.127 91.2038 116.827 90.4445 116.934L65.7298 120.404C64.9719 120.51 64.2706 119.983 64.164 119.223C64.0574 118.464 64.5864 117.764 65.3443 117.658L90.059 114.188C90.8183 114.081 91.5182 114.609 91.6248 115.368ZM92.3958 120.86C92.5024 121.62 91.9748 122.32 91.2155 122.426L66.5008 125.896C65.7429 126.002 65.0416 125.475 64.935 124.716C64.8284 123.956 65.3574 123.256 66.1153 123.15L90.83 119.68C91.5893 119.573 92.2892 120.101 92.3958 120.86Z" fill="#C1694F"/>
</svg>
