<svg width="455" height="86" viewBox="0 0 455 86" fill="none" xmlns="http://www.w3.org/2000/svg">
<path d="M77.4875 43.0352C77.4875 36.3307 75.5595 29.7315 71.8789 24.1152L85.4447 10.4605L75.2791 0.210693L61.7132 13.8654C50.2856 6.35356 35.4929 6.35356 24.0653 13.8654L10.4644 0.210693L0.263672 10.4605L13.8295 24.1152C6.36306 35.6287 6.36306 50.4768 13.8295 61.9903L0.263672 75.6099L10.4644 85.8597L24.0302 72.205C35.4578 79.7168 50.2506 79.7168 61.6782 72.205L75.244 85.8597L85.4447 75.6099L71.8789 61.9552C75.5595 56.3389 77.5225 49.7748 77.4875 43.0352ZM22.6631 43.0352C22.6631 34.7511 27.6408 27.2744 35.2826 24.1854C42.9243 21.0964 51.6878 22.9568 57.4016 28.9242C63.1154 34.8915 64.6577 43.7723 61.2575 51.3193L47.937 37.9103L37.7714 48.1601L51.0919 61.5691C44.8523 64.3772 37.5961 63.8507 31.8473 60.0948C26.1335 56.3389 22.6631 49.9152 22.6631 43.0352Z" fill="white" fill-opacity="0.3"/>
<path d="M150.909 43.4565C150.909 51.8459 146.702 59.3928 139.166 62.8679L143.162 68.0981L134.924 72.2752L129.421 64.9389H129.245C115.645 64.9389 107.617 55.005 107.617 43.4214C107.617 31.8377 115.645 21.9038 129.245 21.9038C142.846 21.9038 150.909 31.8728 150.909 43.4565ZM129.281 56.5144C136.957 56.5144 141.129 50.512 141.129 43.4214C141.129 36.3307 136.957 30.3283 129.281 30.3283C121.534 30.3283 117.362 36.3307 117.432 43.4214C117.362 50.5471 121.534 56.5144 129.281 56.5144ZM166.052 64.5528C159.357 64.5528 155.746 60.3757 155.746 53.1095V35.7691H164.72V51.1087C164.72 54.9348 165.982 57.041 169.347 57.041C173.098 57.041 174.71 54.5838 174.71 50.8279V35.7691H183.509V63.7806H174.71V59.7789C173.168 62.7626 170.294 64.5528 166.052 64.5528ZM201.982 64.5528C193.64 64.5528 188.837 58.1993 188.837 49.7748C188.837 41.3854 193.99 34.9969 202.088 34.9969C206.154 34.9969 209.309 36.9275 210.816 39.7708V35.7691H219.614V63.7806H210.816V59.814C209.344 62.6222 205.873 64.5528 201.982 64.5528ZM204.541 57.1814C208.923 57.1814 211.202 53.8818 211.202 49.8099C211.202 45.8083 208.958 42.4736 204.541 42.4736C200.44 42.4736 197.881 45.5626 197.881 49.8099C197.881 54.0222 200.44 57.1814 204.541 57.1814ZM226.976 35.7691H235.844V39.841C237.457 36.7169 240.647 35.032 244.853 35.032C251.619 35.032 255.019 38.8581 255.019 46.4752V63.8157H246.115V49.3887C246.115 44.685 244.783 42.5438 241.208 42.5438C237.667 42.5438 235.844 44.8605 235.844 49.1781V63.8157H226.976V35.7691ZM276.717 56.8654C277.804 56.8654 278.961 56.7952 279.767 56.6899V63.7806C278.505 64.0263 276.402 64.2369 273.878 64.2369C269.707 64.2369 263.993 63.2891 263.993 53.952V42.7895H259.611V35.7691H263.993V27.4499H272.861V35.7691H279.171V42.7895H272.861V52.0916C272.861 56.2336 274.544 56.8654 276.717 56.8654ZM296.067 64.6581C287.9 64.6581 282.887 60.6565 282.887 55.3561H291.685C291.685 57.2867 293.543 58.6557 296.242 58.6557C298.135 58.6557 299.467 57.6728 299.467 56.023C299.467 54.9348 298.942 53.9871 297.434 53.6361L290.599 51.881C285.972 50.7226 283.588 47.8091 283.588 43.8075C283.588 38.5773 288.145 34.9267 295.506 34.9267C303.674 34.9267 307.95 38.3667 307.95 43.632H299.222C299.222 41.6663 297.785 40.543 295.401 40.543C293.508 40.543 292.211 41.4908 292.211 42.8597C292.211 44.1234 293.088 44.9659 294.595 45.352L301.185 47.1422C305.462 48.3005 308.231 50.9332 308.231 54.9348C308.266 60.7618 303.674 64.6581 296.067 64.6581ZM328.387 56.8654C329.473 56.8654 330.63 56.7952 331.437 56.6899V63.7806C330.175 64.0263 328.071 64.2369 325.547 64.2369C321.376 64.2369 315.662 63.2891 315.662 53.952V42.7895H311.281V35.7691H315.662V27.4499H324.531V35.7691H330.841V42.7895H324.531V52.0916C324.531 56.2336 326.178 56.8654 328.387 56.8654ZM347.666 64.5528C339.324 64.5528 334.521 58.1993 334.521 49.7748C334.521 41.3854 339.674 34.9969 347.772 34.9969C351.838 34.9969 354.993 36.9275 356.5 39.7708V35.7691H365.299V63.7806H356.5V59.814C354.993 62.6222 351.522 64.5528 347.666 64.5528ZM350.19 57.1814C354.572 57.1814 356.851 53.8818 356.851 49.8099C356.851 45.8083 354.607 42.4736 350.19 42.4736C346.089 42.4736 343.53 45.5626 343.53 49.8099C343.53 54.0222 346.089 57.1814 350.19 57.1814ZM372.66 35.7691H381.529V39.841C382.755 37.0328 385.63 35.032 389.521 35.032C394.499 35.032 397.057 37.2434 398.249 40.192C399.757 37.1732 403.052 35.032 407.153 35.032C415.145 35.032 417.038 40.543 417.038 46.4401V63.8157H408.135V48.0548C408.135 44.1585 406.697 42.5438 403.963 42.5438C401.194 42.5438 399.266 44.1234 399.266 49.3887V63.8157H390.362V47.9846C390.362 44.0883 388.96 42.5087 386.261 42.5087C383.421 42.5087 381.529 44.0883 381.529 49.3536V63.7806H372.66V35.7691ZM424.014 35.7691H432.883V39.7708C434.32 37.103 437.79 34.9969 441.962 34.9969C449.603 34.9969 454.791 40.9291 454.791 49.7748C454.791 58.5503 449.428 64.5528 441.716 64.5528C437.615 64.5528 434.25 62.4467 432.883 59.8491V75.4344H424.014V35.7691ZM439.157 57.1814C443.048 57.1814 445.747 54.1626 445.747 49.8099C445.747 45.4924 443.013 42.4736 439.157 42.4736C435.161 42.4736 432.462 45.4222 432.462 49.8099C432.462 54.1977 435.231 57.1814 439.157 57.1814Z" fill="white" fill-opacity="0.3"/>
<path  d="M228.458 8.77568H231.624V21.0614H228.458V19.6117C227.51 20.8075 226.176 21.4054 224.459 21.4054C222.823 21.4054 221.416 20.7829 220.238 19.538C219.077 18.2766 218.496 16.7368 218.496 14.9185C218.496 13.1002 219.077 11.5686 220.238 10.3237C221.416 9.06235 222.823 8.43168 224.459 8.43168C226.176 8.43168 227.51 9.02957 228.458 10.2254V8.77568ZM222.618 17.4248C223.256 18.0637 224.066 18.3831 225.048 18.3831C226.029 18.3831 226.839 18.0637 227.477 17.4248C228.131 16.7696 228.458 15.9341 228.458 14.9185C228.458 13.9029 228.131 13.0757 227.477 12.4368C226.839 11.7816 226.029 11.454 225.048 11.454C224.066 11.454 223.256 11.7816 222.618 12.4368C221.98 13.0757 221.661 13.9029 221.661 14.9185C221.661 15.9341 221.98 16.7696 222.618 17.4248ZM242.591 8.77568H245.757V21.0614H242.591V19.6854C241.823 20.8321 240.604 21.4054 238.935 21.4054C237.594 21.4054 236.482 20.9549 235.598 20.054C234.731 19.153 234.298 17.9081 234.298 16.3191V8.77568H237.463V15.926C237.463 16.745 237.684 17.3757 238.126 17.818C238.567 18.2439 239.156 18.4568 239.892 18.4568C240.71 18.4568 241.365 18.2029 241.855 17.6951C242.346 17.1873 242.591 16.4256 242.591 15.41V8.77568ZM257.956 3.86139H261.121V21.0614H257.956V19.6117C257.024 20.8075 255.698 21.4054 253.981 21.4054C252.328 21.4054 250.914 20.7829 249.736 19.538C248.574 18.2766 247.994 16.7368 247.994 14.9185C247.994 13.1002 248.574 11.5686 249.736 10.3237C250.914 9.06235 252.328 8.43168 253.981 8.43168C255.698 8.43168 257.024 9.02957 257.956 10.2254V3.86139ZM252.116 17.4248C252.77 18.0637 253.588 18.3831 254.57 18.3831C255.551 18.3831 256.361 18.0637 256.999 17.4248C257.637 16.7696 257.956 15.9341 257.956 14.9185C257.956 13.9029 257.637 13.0757 256.999 12.4368C256.361 11.7816 255.551 11.454 254.57 11.454C253.588 11.454 252.77 11.7816 252.116 12.4368C251.478 13.0757 251.159 13.9029 251.159 14.9185C251.159 15.9341 251.478 16.7696 252.116 17.4248ZM265.586 7.30139C265.063 7.30139 264.605 7.113 264.212 6.73625C263.836 6.3431 263.648 5.88442 263.648 5.36025C263.648 4.83607 263.836 4.37739 264.212 3.98425C264.605 3.5911 265.063 3.39453 265.586 3.39453C266.126 3.39453 266.584 3.5911 266.961 3.98425C267.353 4.37739 267.55 4.83607 267.55 5.36025C267.55 5.88442 267.353 6.3431 266.961 6.73625C266.584 7.113 266.126 7.30139 265.586 7.30139ZM264.016 21.0614V8.77568H267.181V21.0614H264.016ZM277.096 11.8225H274.324V16.9334C274.324 17.3593 274.43 17.6705 274.643 17.8671C274.855 18.0637 275.166 18.1784 275.575 18.2111C275.984 18.2275 276.491 18.2193 277.096 18.1865V21.0614C274.921 21.3071 273.383 21.1024 272.483 20.4471C271.6 19.7919 271.158 18.6206 271.158 16.9334V11.8225H269.024V8.77568H271.158V6.29396L274.324 5.33567V8.77568H277.096V11.8225ZM281.619 16.2208C282.045 17.7606 283.198 18.5305 285.079 18.5305C286.29 18.5305 287.206 18.121 287.828 17.302L290.379 18.7762C289.169 20.529 287.386 21.4054 285.03 21.4054C283.002 21.4054 281.374 20.7911 280.147 19.5625C278.92 18.334 278.307 16.786 278.307 14.9185C278.307 13.0675 278.912 11.5277 280.123 10.2991C281.333 9.05414 282.887 8.43168 284.785 8.43168C286.584 8.43168 288.065 9.05414 289.226 10.2991C290.404 11.5441 290.993 13.0839 290.993 14.9185C290.993 15.3281 290.952 15.7621 290.87 16.2208H281.619ZM281.57 13.7637H287.828C287.648 12.9282 287.271 12.3058 286.699 11.8962C286.142 11.4867 285.504 11.282 284.785 11.282C283.934 11.282 283.231 11.5031 282.675 11.9454C282.118 12.3713 281.75 12.9774 281.57 13.7637ZM302.406 3.86139H305.572V21.0614H302.406V19.6117C301.474 20.8075 300.149 21.4054 298.431 21.4054C296.779 21.4054 295.364 20.7829 294.186 19.538C293.025 18.2766 292.444 16.7368 292.444 14.9185C292.444 13.1002 293.025 11.5686 294.186 10.3237C295.364 9.06235 296.779 8.43168 298.431 8.43168C300.149 8.43168 301.474 9.02957 302.406 10.2254V3.86139ZM296.566 17.4248C297.221 18.0637 298.039 18.3831 299.02 18.3831C300.002 18.3831 300.811 18.0637 301.449 17.4248C302.087 16.7696 302.406 15.9341 302.406 14.9185C302.406 13.9029 302.087 13.0757 301.449 12.4368C300.811 11.7816 300.002 11.454 299.02 11.454C298.039 11.454 297.221 11.7816 296.566 12.4368C295.928 13.0757 295.609 13.9029 295.609 14.9185C295.609 15.9341 295.928 16.7696 296.566 17.4248ZM321.742 8.43168C323.394 8.43168 324.801 9.06235 325.962 10.3237C327.14 11.5686 327.729 13.1002 327.729 14.9185C327.729 16.7368 327.14 18.2766 325.962 19.538C324.801 20.7829 323.394 21.4054 321.742 21.4054C320.024 21.4054 318.699 20.8075 317.767 19.6117V21.0614H314.601V3.86139H317.767V10.2254C318.699 9.02957 320.024 8.43168 321.742 8.43168ZM318.724 17.4248C319.362 18.0637 320.171 18.3831 321.153 18.3831C322.134 18.3831 322.944 18.0637 323.582 17.4248C324.236 16.7696 324.564 15.9341 324.564 14.9185C324.564 13.9029 324.236 13.0757 323.582 12.4368C322.944 11.7816 322.134 11.454 321.153 11.454C320.171 11.454 319.362 11.7816 318.724 12.4368C318.086 13.0757 317.767 13.9029 317.767 14.9185C317.767 15.9341 318.086 16.7696 318.724 17.4248ZM337.481 8.77568H340.868L336.402 21.0614C335.764 22.8305 334.913 24.1083 333.85 24.8945C332.803 25.6972 331.494 26.0576 329.924 25.9757V23.0271C330.775 23.0435 331.445 22.8633 331.936 22.4865C332.443 22.1098 332.844 21.5037 333.138 20.6682L328.108 8.77568H331.568L334.758 17.0317L337.481 8.77568Z" fill="white" fill-opacity="0.3"/>
</svg>
