<svg width="40" height="40" viewBox="0 0 40 40" fill="none" xmlns="http://www.w3.org/2000/svg">
<path d="M31.483 11.6868C32.8297 10.8601 33.7214 9.73179 34.158 8.29679C32.9281 8.96197 31.6083 9.44533 30.2397 9.73179C29.068 8.47179 27.5847 7.83179 25.8064 7.83179C24.068 7.83179 22.5997 8.44179 21.4014 9.62845C20.8227 10.192 20.3651 10.8677 20.0568 11.6143C19.7484 12.3608 19.5957 13.1625 19.608 13.9701C19.608 14.4851 19.673 14.9451 19.803 15.3351C14.6764 15.1601 10.433 13.0335 7.08971 8.94012C6.52305 9.94179 6.23971 10.9618 6.23971 12.0168C6.23971 14.1851 7.15471 15.9035 8.98138 17.1651C7.93971 17.0768 7.02138 16.8135 6.23971 16.3818C6.23971 17.9301 6.69471 19.2235 7.60638 20.3618C8.49197 21.471 9.74001 22.2328 11.1314 22.5135C10.6114 22.6468 10.063 22.7101 9.49971 22.7101C8.97971 22.7101 8.61138 22.6668 8.39305 22.5718C8.77638 23.8335 9.49971 24.8568 10.5447 25.6401C11.5778 26.4245 12.8344 26.8584 14.1314 26.8785C11.9114 28.6201 9.37305 29.4818 6.50138 29.4818C5.79805 29.4818 5.29971 29.4718 4.99805 29.4185C7.82638 31.2551 10.9747 32.1668 14.458 32.1668C18.023 32.1668 21.173 31.2635 23.9147 29.4568C26.6564 27.6601 28.6797 25.4435 29.9797 22.8335C31.2653 20.308 31.9347 17.514 31.933 14.6801V13.9001C33.1313 13.0167 34.1687 11.9336 34.9997 10.6985C33.8774 11.1849 32.6945 11.5173 31.483 11.6868V11.6868Z" fill="white" fill-opacity="0.7"/>
</svg>
