<svg width="117" height="114" viewBox="0 0 117 114" fill="none" xmlns="http://www.w3.org/2000/svg">
<path opacity="0.2" d="M70.0624 100.392L71.0652 97.4034C73.1138 96.3461 76.9779 94.4921 78.9214 91.1078C79.0972 91.3007 78.9387 91.3339 79.1793 91.4146C80.3333 91.8018 81.5936 90.5596 82.2138 88.7114C82.8237 86.8936 82.319 85.0863 81.2031 84.6611C81.6844 83.9486 82.142 82.9333 82.5946 81.5845C84.1046 77.0842 82.0369 70.3789 73.3529 67.4651C65.6358 64.8757 58.9891 68.6569 57.479 73.1572C57.0407 74.4634 56.7587 75.5613 56.6189 76.4375C55.5041 76.2413 54.1927 77.3731 53.6093 79.1117C52.9892 80.96 53.4218 82.7702 54.5773 83.1579C54.8163 83.2381 54.4983 83.045 54.7534 82.9968C54.2617 86.8699 56.3676 90.7254 57.3633 92.8058L56.4198 95.6178C50.0788 94.3234 44.4203 96.0428 43.3287 99.2963L42.9144 100.531C42.5001 101.766 43.7531 102.186 44.9877 102.6L73.5029 112.168C74.7406 112.584 75.9936 113.004 76.4084 111.768L76.8226 110.533C77.8443 107.488 74.2967 102.917 70.0624 100.392V100.392Z" fill="#0857E0"/>
<path opacity="0.4" d="M45.8791 66.9688L45.0717 62.4705C46.9396 59.6989 50.5606 54.6494 50.6735 48.9925C51.0314 49.1151 50.853 49.2678 51.2151 49.2028C52.9521 48.891 53.689 46.4336 53.1897 43.6517C52.6986 40.9156 50.7976 38.9695 49.0827 39.2064C49.1981 37.9651 49.0724 36.3556 48.708 34.3253C47.4922 27.5515 40.1914 20.4672 27.1205 22.8133C15.5047 24.8981 9.68878 34.3366 10.9046 41.1104C11.2575 43.0766 11.6639 44.6688 12.0966 45.8803C10.5425 46.4076 9.66389 48.7603 10.1336 51.3773C10.6329 54.1592 12.4442 56.1592 14.1835 55.847C14.5433 55.7825 14.0044 55.7586 14.295 55.5195C16.3686 60.7864 21.7323 64.2209 24.4479 66.1721L25.2076 70.4046C16.2438 73.1772 10.2477 79.3058 11.1266 84.2028L11.4602 86.0613C11.7937 87.9197 13.6797 87.5812 15.5381 87.2477L58.4586 79.5441C60.3216 79.2097 62.2075 78.8712 61.8736 77.0105L61.54 75.152C60.7174 70.569 53.0218 67.229 45.8791 66.9688V66.9688Z" fill="#0857E0"/>
<path d="M88.7715 63.495L89.9059 58.255C93.1667 56.0827 99.3435 52.2222 101.992 46.1364C102.325 46.4293 102.064 46.5152 102.485 46.6064C104.505 47.0438 106.401 44.7072 107.102 41.4666C107.792 38.2794 106.603 35.3196 104.64 34.8107C105.319 33.5158 105.902 31.7138 106.414 29.3487C108.122 21.4581 103.379 10.5135 88.1746 7.22179C74.6657 4.29706 64.149 11.9378 62.4406 19.8284C61.9448 22.1187 61.6739 24.0274 61.6014 25.5347C59.6829 25.4127 57.6805 27.5725 57.0205 30.6209C56.3189 33.8615 57.3875 36.8398 59.4106 37.2778C59.8291 37.3684 59.2561 37.1019 59.6776 36.9724C59.5713 43.6114 63.8466 49.7319 65.9163 53.0612L64.8489 57.9915C53.9025 56.9964 44.6715 60.9669 43.4364 66.6713L42.9683 68.8335C42.499 71.001 44.6927 71.4759 46.8545 71.9439L96.7796 82.753C98.9467 83.2221 101.14 83.6971 101.61 81.5296L102.078 79.3674C103.234 74.026 96.3912 66.9667 88.7715 63.495Z" fill="#0857E0"/>
</svg>
