<svg width="206" height="62" viewBox="0 0 206 62" fill="none" xmlns="http://www.w3.org/2000/svg">
<path fill-rule="evenodd" clip-rule="evenodd" d="M73.6463 5.36185C76.4293 4.70437 79.7114 5.24475 82.6474 5.8211C88.2502 6.92098 93.6938 8.18773 99.1794 10.1349C99.2457 10.4501 98.912 10.9128 98.5964 11.3505C98.5111 11.4688 98.4272 11.5852 98.3528 11.6963C95.9448 15.2922 93.298 19.3504 91.4641 23.6366C101.101 15.6588 112.334 7.57846 127.101 4.44031C129.3 3.97341 132.487 3.58076 134.908 3.61367C137.484 3.64888 141.247 4.03464 141.705 6.00173C142.147 7.8968 140.942 11.0104 140.283 12.7162C140.233 12.8437 140.187 12.9634 140.145 13.0741C139.652 14.3616 139.13 15.503 138.634 16.5865C138.22 17.4902 137.825 18.3536 137.481 19.2279C139.564 18.8693 141.872 18.3832 144.16 17.9014C146.134 17.4855 148.094 17.0728 149.881 16.748C149.046 16.3663 148.11 16.1222 147.141 15.8697C146.379 15.671 145.597 15.467 144.828 15.1866C143.459 14.6883 141.549 13.616 141.338 12.1556C140.982 9.69787 143.509 7.57157 145.287 6.64467C147.429 5.52871 150.025 5.12687 152.911 5.08325C165.711 4.88755 178.906 7.5079 191.187 9.94666C194.613 10.6269 197.967 11.2931 201.222 11.88C201.095 12.4505 200.656 12.8929 200.24 13.3116C200.136 13.4171 200.033 13.521 199.936 13.6252C196.449 17.4047 192.187 20.761 185.884 21.8915C180.935 22.7794 174.883 22.239 168.892 21.616C168.737 21.5997 168.579 21.5829 168.421 21.566C166.566 21.3677 164.592 21.1568 163.29 21.616C162.438 21.9168 161.519 22.9225 160.811 23.8203C160.254 24.5245 159.186 26.0255 159.616 27.035C159.935 27.7859 161.818 27.8282 163.007 27.8549C163.107 27.8571 163.201 27.8593 163.29 27.8617C166.562 27.9499 169.77 27.1799 173.107 26.3789C176.139 25.6509 179.278 24.8973 182.67 24.7388C185.265 24.6179 188.155 25.0159 189.283 26.8513C190.679 29.1215 189.47 32.2076 188.272 33.4644C184.522 37.4002 176.51 37.5359 169.27 37.6586C167.066 37.6959 164.933 37.7321 163.014 37.8739C159.701 38.1189 156.555 38.5031 154.656 39.9864C154.109 40.4135 153.281 41.3098 153.278 42.099C153.275 43.2723 154.419 43.854 155.208 44.2115C160.376 46.5536 167.975 44.8146 173.761 43.4767C174.928 43.2067 176.18 42.8731 177.48 42.5269C179.099 42.0956 180.792 41.6446 182.486 41.2723C182.619 41.243 182.757 41.2126 182.897 41.1815C186.963 40.2813 193.813 38.7648 192.589 44.7633C192.142 46.9524 190.068 48.5743 188.181 49.815C182.587 53.4935 174.65 55.701 167.239 57.1629C161.733 58.2498 156.36 58.9555 150.523 59.0925C148.259 59.146 145.804 59.081 142.624 58.8169C142.434 58.8012 142.245 58.7858 142.057 58.7704C137.696 58.4143 133.76 58.0928 132.245 55.2348C131.46 53.7553 131.57 51.5471 131.969 49.5402C124.631 53.5861 115.659 58.0821 103.772 58.0821C97.8484 58.0821 92.5686 57.0772 88.525 54.8674C84.4607 52.647 81.9203 48.9784 82.3711 42.7434C82.0194 43.4813 81.676 44.2274 81.3323 44.9741C79.5857 48.769 77.8311 52.581 74.9314 55.4193C73.2774 57.0389 70.8671 57.9222 67.6754 58.1747C63.4113 58.5131 57.99 57.8495 57.021 54.2253C56.2747 51.4323 57.4182 47.6612 58.215 45.1323C59.1036 42.3133 59.98 39.9665 61.063 37.417C61.143 37.2288 61.2237 37.0397 61.3048 36.8497C63.3112 32.1474 65.5592 26.8791 63.1756 20.425C61.4524 22.5175 59.8905 24.6828 58.3425 26.8289C56.7756 29.0011 55.2228 31.1537 53.5315 33.1912C50.1928 37.2142 46.4323 40.846 42.3252 44.3056C38.267 47.7254 34.2303 50.6807 29.0079 53.3075L28.9038 53.3599C25.6034 55.0192 21.4226 57.1211 15.9654 57.0733C14.0787 57.0565 11.9662 56.8093 11.6478 55.8785C11.2957 54.8498 12.2725 53.8293 13.2418 52.8167C13.9984 52.0262 14.7504 51.2406 14.8625 50.4595C15.1555 48.4183 13.3445 46.2465 11.9892 44.6212C11.7304 44.3108 11.4882 44.0203 11.2804 43.7545C9.75187 41.8008 8.77709 39.8502 7.80988 37.9148C7.71157 37.7181 7.61333 37.5215 7.5146 37.3251C5.35999 33.0396 2.90304 27.6298 3.65696 21.5272C4.36573 15.7828 8.26852 12.4051 12.3818 9.77058C14.4446 8.45026 16.5624 7.32894 19.0875 6.28034C19.647 6.0479 20.245 5.77341 20.8642 5.48919C22.8141 4.59416 24.974 3.60273 26.8028 3.52488C28.2571 3.46289 29.0408 4.17165 29.1901 5.91294C29.374 8.04252 28.8238 10.7001 28.3428 13.0232C28.2874 13.291 28.2329 13.5543 28.1805 13.8119C27.957 14.9102 27.7152 16.0082 27.472 17.1132C26.3889 22.0322 25.2756 27.0882 25.6088 32.9164C25.7014 34.5383 26.0772 35.9796 26.8946 36.1311C28.0647 36.3472 29.3798 34.5934 30.0003 33.766L30.0175 33.743C30.0899 33.6465 30.1616 33.551 30.2325 33.4565C31.8397 31.3156 33.0611 29.6885 34.3351 27.2218C34.962 26.0079 35.6409 24.5919 35.8047 23.2723C35.9613 22.0084 35.7993 20.697 35.642 19.4244C35.422 17.6434 35.2113 15.9386 35.8966 14.5467C36.8962 12.5169 39.5651 11.4568 41.683 10.6891C47.7573 8.487 54.8878 7.97877 62.6245 8.6684C63.1566 8.71582 63.7149 8.81276 64.2667 8.90857C65.2381 9.07722 66.1892 9.24235 66.9414 9.12764C67.6427 9.02081 68.5055 8.29212 69.2285 7.68156C69.5414 7.41728 69.8281 7.17513 70.0642 7.01513C71.0439 6.35152 72.329 5.67337 73.6463 5.36185ZM118.478 37.6836C115.731 37.9162 112.916 38.1544 110.019 38.2426C110.32 36.9062 110.724 35.5578 111.121 34.2338C111.54 32.834 111.952 31.4615 112.224 30.1592C112.048 30.3218 111.872 30.4836 111.696 30.646C110.398 31.84 109.068 33.0626 107.631 34.8434C107.478 35.033 107.318 35.2269 107.153 35.4253C105.909 36.924 104.452 38.6785 104.692 40.7225C104.889 42.3972 107.363 42.9759 109.101 43.0187C111.945 43.0889 114.813 42.0395 117.564 41.033C118.022 40.8653 118.477 40.6988 118.929 40.5388C119.679 40.2727 120.428 40.0115 121.172 39.7523C123.63 38.8951 126.024 38.0602 128.205 37.1404C125.044 37.1278 121.811 37.4015 118.478 37.6836Z" fill="white" fill-opacity="0.3"/>
</svg>
