<svg width="50" height="50" viewBox="0 0 50 50" fill="none" xmlns="http://www.w3.org/2000/svg">
<rect width="50" height="50" rx="25" fill="white"/>
<g opacity="0.3">
<path d="M33.78 23.0913V21.156C33.7799 20.7314 33.6822 20.3125 33.4944 19.9317C33.3067 19.5508 33.0339 19.2182 32.6972 18.9596C32.3605 18.7009 31.9688 18.5231 31.5524 18.4399C31.1361 18.3566 30.7062 18.3702 30.2959 18.4795L15.0572 22.5427C14.4671 22.7 13.9455 23.0478 13.5735 23.532C13.2015 24.0163 12.9999 24.6099 13 25.2206V25.862" stroke="black" stroke-width="2"/>
<path d="M35.1653 41.1008L15.7707 41.1008C15.0358 41.1008 14.3311 40.8088 13.8115 40.2892C13.2919 39.7696 13 39.0649 13 38.3301L13 25.8621C13 25.1273 13.2919 24.4225 13.8115 23.9029C14.3311 23.3833 15.0358 23.0914 15.7707 23.0914L35.1653 23.0914C35.9002 23.0914 36.6049 23.3833 37.1245 23.9029C37.6441 24.4225 37.936 25.1273 37.936 25.8621L37.936 38.3301C37.936 39.0649 37.6441 39.7696 37.1245 40.2892C36.6049 40.8088 35.9002 41.1008 35.1653 41.1008Z" stroke="black" stroke-width="2"/>
<path d="M31.7024 32.7889C31.5187 32.7889 31.3425 32.7159 31.2126 32.586C31.0827 32.4561 31.0098 32.2799 31.0098 32.0962C31.0098 31.9125 31.0827 31.7363 31.2126 31.6064C31.3425 31.4765 31.5187 31.4036 31.7024 31.4036C31.8861 31.4036 32.0623 31.4765 32.1922 31.6064C32.3221 31.7363 32.3951 31.9125 32.3951 32.0962C32.3951 32.2799 32.3221 32.4561 32.1922 32.586C32.0623 32.7159 31.8861 32.7889 31.7024 32.7889Z" stroke="black" stroke-width="3" stroke-linecap="round" stroke-linejoin="round"/>
</g>
<path d="M18 19L25 27L32 19" stroke="#0857E0" stroke-width="5" stroke-linecap="round" stroke-linejoin="round"/>
<path d="M25 26L25 8" stroke="#0857E0" stroke-width="5" stroke-linecap="round" stroke-linejoin="round"/>
</svg>
