<svg width="14px" height="14px" viewBox="0 0 14 14" version="1.1" xmlns="http://www.w3.org/2000/svg" xmlns:xlink="http://www.w3.org/1999/xlink">
    <title>A9A708E2-8AEB-4084-B49B-17D8ED971512</title>
    <g id="Page-1" stroke="none" stroke-width="1" fill="none" fill-rule="evenodd">
        <g id="2.listing" transform="translate(-686.000000, -1035.000000)" fill="#708090" fill-rule="nonzero">
            <g id="Group-24" transform="translate(119.000000, 624.111969)">
                <g id="Group-29" transform="translate(326.000000, 408.000000)">
                    <path d="M247.781234,16.5624677 C251.526144,16.5624677 254.562468,13.5272385 254.562468,9.78123383 C254.562468,6.03741875 251.526144,3 247.781234,3 C244.036324,3 241,6.03741875 241,9.78123383 C241,13.5272385 244.036324,16.5624677 247.781234,16.5624677 Z M248.546857,11.3124802 L247.015611,11.3124802 C246.834405,11.3124802 246.687486,11.1655613 246.687486,10.984356 L246.687486,10.8749812 C246.687486,9.75228798 247.538639,9.30349373 248.181883,8.94289889 C248.73343,8.63368026 249.071461,8.42336888 249.071461,8.01388117 C249.071461,7.47218782 248.380525,7.1126878 247.821929,7.1126878 C247.078442,7.1126878 246.743509,7.4719475 246.255034,8.09150626 C246.144458,8.23177616 245.941677,8.25746427 245.799351,8.14953148 L244.850573,7.43010418 C244.711985,7.3250286 244.679648,7.13009803 244.776339,6.98555568 C245.522656,5.86991198 246.473063,5.24218215 247.963214,5.24218215 C249.504473,5.24218215 251.149581,6.44525088 251.149581,8.031238 C251.149581,10.1372358 248.874981,10.169653 248.874981,10.9479066 L248.874981,10.984356 C248.874981,11.1655613 248.728062,11.3124802 248.546857,11.3124802 Z M247.781234,14.539035 C247.087655,14.539035 246.523424,13.9747778 246.523424,13.2812255 C246.523424,12.5876465 247.087655,12.023416 247.781234,12.023416 C248.474813,12.023416 249.039043,12.5876465 249.039043,13.2812255 C249.039043,13.9747778 248.474813,14.539035 247.781234,14.539035 Z" id="question"></path>
                </g>
            </g>
        </g>
    </g>
</svg>