<svg width="16px" height="19px" viewBox="0 0 16 19" version="1.1" xmlns="http://www.w3.org/2000/svg" xmlns:xlink="http://www.w3.org/1999/xlink">
    <!-- <title>250F30C0-8EA4-475B-B00D-02C43F7E92B7</title> -->
    <g id="Page-1" stroke="none" stroke-width="1" fill="none" fill-rule="evenodd">
        <g id="2.listing" transform="translate(-769.000000, -526.000000)" fill="#262626" fill-rule="nonzero">
            <g id="Group-24-Copy" transform="translate(729.000000, 362.111969)">
                <g id="Group-17" transform="translate(20.000000, 144.000000)">
                    <g id="Group-23" transform="translate(20.000050, 20.500000)">
                        <path d="M14.2856696,18.2856737 C15.2320953,18.2856737 15.99995,17.5178189 15.99995,16.5713933 L15.99995,8.57141833 C15.99995,7.62499272 15.2320953,6.85713798 14.2856696,6.85713798 L13.1428161,6.85713798 L13.1428161,5.19287141 C13.1428161,2.35000223 10.8571089,0.00716635784 8.01427462,3.55271368e-15 C5.17140544,-0.00713326265 2.85713393,2.30358078 2.85713393,5.14285762 L2.85713393,6.85713798 L1.71428036,6.85713798 C0.767854743,6.85713798 6.31494856e-13,7.62499272 6.31494856e-13,8.57141833 L6.31494856e-13,16.5713933 C6.31494856e-13,17.5178189 0.767854743,18.2856737 1.71428036,18.2856737 L14.2856696,18.2856737 Z M11.4285357,6.85713798 L4.57141429,6.85713798 L4.57141429,5.14285762 C4.57141429,3.25356386 6.11068124,1.7142969 7.999975,1.7142969 C9.88926876,1.7142969 11.4285357,3.25356386 11.4285357,5.14285762 L11.4285357,6.85713798 Z M14.2856696,16.5713933 L1.71428036,16.5713933 L1.71428036,8.57141833 L14.2856696,8.57141833 L14.2856696,16.5713933 Z" id="lock"></path>
                    </g>
                </g>
            </g>
        </g>
    </g>
</svg>