<svg xmlns="http://www.w3.org/2000/svg" width="21" height="20" viewBox="0 0 21 20">
    <g fill="none" fill-rule="evenodd">
        <g fill="#FFF" fill-rule="nonzero">
            <g>
                <path d="M20.449 20.5V.5h-20v20h20zm-3.407-4.826h-5.267v-.219l1.084-1.053c.086-.086.103-.123.107-.217V7.991l-3.017 7.66h-.407L6.03 7.992v5.134c-.031.214.045.433.196.59l1.411 1.71v.227H3.627v-.228l1.41-1.71c.153-.156.22-.375.184-.589V7.187c.018-.165-.045-.325-.17-.437L3.797 5.237v-.228h3.897l3.01 6.607 2.646-6.603h3.715v.224l-1.072 1.026c-.093.072-.138.188-.12.3v7.558c-.018.116.027.232.12.299l1.05 1.026v.228z" transform="translate(-430 -526) translate(430 525.5)"/>
            </g>
        </g>
    </g>
</svg>
