<svg xmlns="http://www.w3.org/2000/svg" width="20" height="20" viewBox="0 0 20 20">
    <g fill="none" fill-rule="evenodd">
        <g fill="#FFF" fill-rule="nonzero">
            <g>
                <path d="M17.857 20.5c1.183 0 2.143-.96 2.143-2.143V2.643C20 1.46 19.04.5 17.857.5H2.143C.96.5 0 1.46 0 2.643v15.714C0 19.54.96 20.5 2.143 20.5h15.714zm-.268-2.143H2.411c-.148 0-.268-.12-.268-.268V2.911c0-.148.12-.268.268-.268h15.178c.148 0 .268.12.268.268v15.178c0 .148-.12.268-.268.268zm-6.875-2.143c.295 0 .536-.24.536-.535V11.75h3.929c.294 0 .535-.241.535-.536V9.786c0-.295-.24-.536-.535-.536H11.25V5.321c0-.294-.241-.535-.536-.535H9.286c-.295 0-.536.24-.536.535V9.25H4.821c-.294 0-.535.241-.535.536v1.428c0 .295.24.536.535.536H8.75v3.929c0 .294.241.535.536.535h1.428z" transform="translate(-1164 -526) translate(1164 525.5)"/>
            </g>
        </g>
    </g>
</svg>
