<?xml version="1.0" encoding="UTF-8" standalone="no"?>
<!-- Generator: Adobe Illustrator 19.2.1, SVG Export Plug-In . SVG Version: 6.00 Build 0)  -->

<svg
   xmlns:dc="http://purl.org/dc/elements/1.1/"
   xmlns:cc="http://creativecommons.org/ns#"
   xmlns:rdf="http://www.w3.org/1999/02/22-rdf-syntax-ns#"
   xmlns:svg="http://www.w3.org/2000/svg"
   xmlns="http://www.w3.org/2000/svg"
   xmlns:sodipodi="http://sodipodi.sourceforge.net/DTD/sodipodi-0.dtd"
   xmlns:inkscape="http://www.inkscape.org/namespaces/inkscape"
   version="1.1"
   id="layer"
   x="0px"
   y="0px"
   viewBox="0 0 121.5 183.5"
   xml:space="preserve"
   sodipodi:docname="portis-io-logo-vector.svg"
   width="121.5"
   height="183.5"
   inkscape:version="0.92.3 (2405546, 2018-03-11)"><metadata
   id="metadata63"><rdf:RDF><cc:Work
       rdf:about=""><dc:format>image/svg+xml</dc:format><dc:type
         rdf:resource="http://purl.org/dc/dcmitype/StillImage" /><dc:title></dc:title></cc:Work></rdf:RDF></metadata><defs
   id="defs61">
		
		
		
		
		
		
		
	</defs><sodipodi:namedview
   pagecolor="#ffffff"
   bordercolor="#666666"
   borderopacity="1"
   objecttolerance="10"
   gridtolerance="10"
   guidetolerance="10"
   inkscape:pageopacity="0"
   inkscape:pageshadow="2"
   inkscape:window-width="3440"
   inkscape:window-height="1377"
   id="namedview59"
   showgrid="false"
   inkscape:zoom="2.047573"
   inkscape:cx="227.649"
   inkscape:cy="224.50846"
   inkscape:window-x="-8"
   inkscape:window-y="-8"
   inkscape:window-maximized="1"
   inkscape:current-layer="Layer_2" />
<style
   type="text/css"
   id="style2">
	.portis0{fill:#133444;}
	.portis1{fill:#C42370;}
	.portis2{fill:#1C4D6B;}
	.portis3{fill:#1D4259;}
	.portis4{fill:#4B6B9A;}
	.portis5{fill:#343535;}
	.portis6{fill:#3E5578;}
	.portis7{fill:#6DB2D8;}
	.portis8{fill:#335F8A;}
	.portis9{fill:#529BBA;}
</style>
<g
   id="Layer_2"
   transform="translate(0,-468.5)">
	<g
   id="Layer_2-2"
   transform="translate(-19.611617,237.84255)">
			<g
   id="Layer_1-2-2">
				<polygon
   style="fill:#133444"
   id="polygon4"
   points="26.4,334.3 80.6,310.7 139.2,336.2 117.2,381.7 63.4,389.3 22.9,345.6 22,336.2 "
   class="portis0" />
				<path
   style="fill:#c42370"
   inkscape:connector-curvature="0"
   id="path6"
   d="M 127.1,308.2 C 117.4,296.5 103.7,289 88.7,287 l -1,-0.1 c -4.7,-0.6 -9.4,-0.6 -14.1,0 l -1,0.1 c -15,2 -28.7,9.6 -38.4,21.2 v 0 l -2.4,4 -4.1,6.7 -3,4.9 v 0 c 0,0.1 -0.1,0.3 -0.2,0.4 v 0.1 l 6.5,3.9 41.5,24.6 8,4.7 v -58.7 l -8,3.6 v -8.8 l 8,-3.6 8,3.6 40.8,18.6 z"
   class="portis1" />
				<path
   style="fill:#1c4d6b"
   inkscape:connector-curvature="0"
   id="path8"
   d="m 141,350.8 c -0.1,19.3 -8.8,37.5 -23.7,49.7 -5.7,4.7 -12.1,8.2 -19.1,10.6 -5.7,1.9 -11.6,2.8 -17.6,2.8 -33.4,0 -60.5,-29.7 -60.5,-63.1 0,-4.9 0.6,-9.8 1.8,-14.6 l 58.6,34.7 58.6,-34.7 c 1.3,4.8 2,9.7 1.9,14.6 z"
   class="portis2" />
				<polygon
   id="polygon10"
   points="72.6,286.4 73.6,286.9 80.6,290 72.6,293.7 " />
				<polygon
   id="polygon12"
   points="72.6,352.8 72.6,302.5 80.6,298.8 80.6,357.6 " />
				<polygon
   style="fill:#1d4259"
   id="polygon14"
   points="80.6,357.6 136.8,324.4 80.6,298.8 "
   class="portis3" />
				<polygon
   style="fill:#4b6b9a"
   id="polygon16"
   points="80.6,298.8 136.8,324.4 80.6,231.2 "
   class="portis4" />
				<path
   style="fill:#343535"
   inkscape:connector-curvature="0"
   id="path18"
   d="m 80.6,298.8 v 58.7 l -8,-4.7 -48.1,-28.4 h -0.1 0.1 c 0,-0.1 0.1,-0.3 0.2,-0.4 v 0 l 7,-11.7 40.8,-18.5 v 8.7 z"
   class="portis5" />
				<polygon
   style="fill:#3e5578"
   id="polygon20"
   points="80.6,298.8 80.6,357.6 72.6,352.8 24.5,324.4 24.6,324.3 72.6,302.5 "
   class="portis6" />
				<polygon
   style="fill:#6db2d8"
   id="polygon22"
   points="80.6,298.8 24.5,324.4 80.6,231.2 "
   class="portis7" />
				<path
   style="fill:#335f8a"
   inkscape:connector-curvature="0"
   id="path24"
   d="m 57.9,409.1 c 0.8,0.4 1.7,0.7 2.5,1 -0.8,-0.3 -1.6,-0.7 -2.5,-1 z"
   class="portis8" />
				<path
   style="fill:#335f8a"
   inkscape:connector-curvature="0"
   id="path26"
   d="m 60.4,410.1 c 0.8,0.3 1.7,0.7 2.6,0.9 -0.8,-0.2 -1.7,-0.5 -2.6,-0.9 z"
   class="portis8" />
				<path
   style="fill:#335f8a"
   inkscape:connector-curvature="0"
   id="path28"
   d="m 65.3,411.7 c 0.7,0.2 1.3,0.4 2,0.5 -0.7,-0.1 -1.4,-0.3 -2,-0.5 z"
   class="portis8" />
				<path
   style="fill:#6db2d8"
   inkscape:connector-curvature="0"
   id="path30"
   d="m 22,336.2 58.6,34.7 c -0.8,5.3 -2.2,10.4 -4.2,15.4 -4.7,11.4 -14.1,23.4 -32.5,14.2 v 0 C 29,388.3 20.3,370.1 20.2,350.8 c 0,-4.9 0.6,-9.8 1.8,-14.6 z"
   class="portis7" />
				<path
   style="fill:#529bba"
   inkscape:connector-curvature="0"
   id="path32"
   d="m 117.3,400.5 -0.2,0.1 c -0.3,0.2 -0.6,0.5 -0.9,0.7 l -0.1,0.1 c -0.3,0.3 -0.7,0.5 -1,0.8 -0.4,0.3 -0.7,0.6 -1.1,0.8 -0.4,0.2 -0.8,0.5 -1.1,0.8 -0.4,0.3 -0.7,0.4 -1,0.7 l -0.2,0.1 c -0.4,0.2 -0.7,0.4 -1,0.7 0,0 -0.1,0 -0.1,0.1 -0.4,0.2 -0.7,0.4 -1.1,0.7 -0.4,0.2 -0.8,0.4 -1.2,0.7 -0.4,0.2 -0.8,0.4 -1.2,0.6 v 0 l -1.2,0.6 c -0.4,0.2 -0.8,0.4 -1.2,0.6 -0.4,0.2 -0.8,0.4 -1.2,0.6 -0.8,0.4 -1.7,0.7 -2.5,1 -0.8,0.3 -1.7,0.6 -2.6,0.9 -0.3,0.1 -0.7,0.2 -1,0.3 l -1.2,0.4 c -0.7,0.2 -1.3,0.4 -2,0.5 -0.2,0.1 -0.5,0.1 -0.8,0.2 l -0.4,0.1 -1.1,0.2 c -0.4,0.1 -0.6,0.1 -1,0.2 -0.3,0.1 -0.6,0.1 -0.9,0.2 -0.3,0 -0.7,0.1 -1,0.2 -0.2,0 -0.3,0 -0.5,0.1 l -0.8,0.1 h -0.4 c -0.3,0 -0.6,0.1 -0.8,0.1 -0.3,0 -0.7,0.1 -1,0.1 -0.3,0 -0.5,0 -0.8,0 -0.3,0 -0.5,0 -0.7,0 v 0 c -0.3,0 -0.6,0 -0.8,0 -0.2,0 -0.8,0 -1.1,0 h -2.4 c -0.4,0 -0.8,0 -1.1,0 -0.3,0 -0.6,0 -0.8,0 v 0 c -0.2,0 -0.5,0 -0.7,0 -0.2,0 -0.5,0 -0.8,0 -0.3,0 -0.7,-0.1 -1,-0.1 -0.3,0 -0.6,0 -0.8,-0.1 h -0.4 c -0.2,0 -0.5,-0.1 -0.8,-0.1 -0.2,0 -0.3,0 -0.5,-0.1 -0.3,0 -0.7,-0.1 -1,-0.2 -0.3,0 -0.6,-0.1 -0.9,-0.2 -0.3,0 -0.7,-0.1 -1,-0.2 -0.3,-0.1 -0.7,-0.2 -1.1,-0.2 l -0.4,-0.1 c -0.3,0 -0.6,-0.1 -0.8,-0.1 -0.7,-0.2 -1.4,-0.4 -2,-0.5 l -1.2,-0.4 c -0.4,-0.1 -0.7,-0.2 -1,-0.3 -0.9,-0.3 -1.7,-0.6 -2.6,-0.9 -0.9,-0.3 -1.7,-0.7 -2.5,-1 -0.4,-0.2 -0.8,-0.4 -1.2,-0.6 l -1.2,-0.6 -1.2,-0.6 v 0 c -0.4,-0.2 -0.8,-0.4 -1.2,-0.6 -0.4,-0.2 -0.8,-0.4 -1.2,-0.7 -0.4,-0.2 -0.7,-0.4 -1.1,-0.7 l -0.1,-0.1 c -0.4,-0.2 -0.7,-0.4 -1,-0.7 l -0.2,-0.1 c -0.3,-0.2 -0.7,-0.4 -1,-0.7 -0.3,-0.2 -0.8,-0.5 -1.1,-0.8 -0.4,-0.3 -0.8,-0.5 -1.1,-0.8 l -1,-0.8 -0.1,-0.1 c -0.3,-0.2 -0.6,-0.5 -0.9,-0.7 l -0.2,-0.1 c 18.3,9.1 27.8,-2.9 32.5,-14.2 2,-4.9 3.4,-10.1 4.2,-15.4 0.8,5.3 2.2,10.4 4.2,15.4 4.1,11.2 13.6,23.2 31.9,14.1 z"
   class="portis9" />
				<path
   style="fill:#335f8a"
   inkscape:connector-curvature="0"
   id="path34"
   d="m 94,412.3 c 0.7,-0.2 1.4,-0.4 2,-0.5 -0.6,0.1 -1.3,0.3 -2,0.5 z"
   class="portis8" />
				<path
   style="fill:#335f8a"
   inkscape:connector-curvature="0"
   id="path36"
   d="m 98.2,411 c 0.9,-0.3 1.7,-0.6 2.6,-0.9 -0.8,0.4 -1.7,0.7 -2.6,0.9 z"
   class="portis8" />
				<path
   style="fill:#335f8a"
   inkscape:connector-curvature="0"
   id="path38"
   d="m 100.8,410.1 c 0.8,-0.3 1.7,-0.7 2.5,-1 -0.8,0.3 -1.6,0.7 -2.5,1 z"
   class="portis8" />
				<path
   style="fill:#4b6b9a"
   inkscape:connector-curvature="0"
   id="path40"
   d="m 141,350.8 c -0.1,19.3 -8.8,37.5 -23.7,49.7 -18.3,9.1 -27.8,-2.9 -32.5,-14.2 -2,-4.9 -3.4,-10.1 -4.2,-15.4 l 58.6,-34.7 c 1.2,4.8 1.8,9.7 1.8,14.6 z"
   class="portis4" />
			</g>
		</g>
</g>
</svg>