<svg xmlns="http://www.w3.org/2000/svg" width="16" height="17" viewBox="0 0 16 17">
    <g fill="none" fill-rule="evenodd">
        <g fill="#595959">
            <g>
                <g>
                    <path d="M6.574.015c3.631 0 6.575 2.944 6.575 6.575 0 1.578-.556 3.026-1.483 4.16L16 15.085l-.93.93-4.335-4.335c-1.133.928-2.582 1.484-4.16 1.484C2.942 13.164 0 10.221 0 6.59S2.943.015 6.574.015zm0 1.315c-2.904 0-5.26 2.355-5.26 5.26s2.356 5.26 5.26 5.26c2.905 0 5.26-2.355 5.26-5.26s-2.355-5.26-5.26-5.26z" transform="translate(-931 -587) translate(120 566) translate(811 21) translate(0 .5)"/>
                </g>
            </g>
        </g>
    </g>
</svg>
