<svg width="20" height="20" viewBox="0 0 20 20" fill="none" xmlns="http://www.w3.org/2000/svg">
<g clip-path="url(#clip0_2045_90446)">
<path d="M5.11428 19.5018L10.0003 16.9338L14.8863 19.5018C15.7533 19.9578 16.7893 19.2258 16.6213 18.2418L15.6863 12.8028L19.6373 8.95277C20.3473 8.26077 19.9553 7.05277 18.9763 6.91177L13.5143 6.11477L11.0733 1.16477C10.6363 0.283769 9.36828 0.271769 8.92728 1.16477L6.48628 6.11477L1.02428 6.91177C0.0442814 7.05377 -0.347719 8.26177 0.363281 8.95177L4.31428 12.8028L3.37928 18.2428C3.21128 19.2258 4.24728 19.9628 5.11428 19.5028V19.5018ZM14.6473 17.3488L10.0003 14.9078L5.35328 17.3488L6.23928 12.1748L2.47928 8.51177L7.67528 7.75677L10.0003 3.04677L12.3253 7.75677L17.5213 8.51177L13.7613 12.1748L14.6473 17.3488V17.3488Z" fill="black"/>
</g>
<defs>
<clipPath id="clip0_2045_90446">
<rect width="20" height="20" fill="white"/>
</clipPath>
</defs>
</svg>
