<?xml version="1.0" encoding="UTF-8" standalone="no"?>
<svg
   xmlns:dc="http://purl.org/dc/elements/1.1/"
   xmlns:cc="http://creativecommons.org/ns#"
   xmlns:rdf="http://www.w3.org/1999/02/22-rdf-syntax-ns#"
   xmlns:svg="http://www.w3.org/2000/svg"
   xmlns="http://www.w3.org/2000/svg"
   xmlns:sodipodi="http://sodipodi.sourceforge.net/DTD/sodipodi-0.dtd"
   xmlns:inkscape="http://www.inkscape.org/namespaces/inkscape"
   width="20"
   height="20"
   viewBox="0 0 20 20"
   version="1.1"
   id="svg10"
   sodipodi:docname="substack-black - Kopie.svg"
   inkscape:version="0.92.3 (2405546, 2018-03-11)">
  <metadata
     id="metadata16">
    <rdf:RDF>
      <cc:Work
         rdf:about="">
        <dc:format>image/svg+xml</dc:format>
        <dc:type
           rdf:resource="http://purl.org/dc/dcmitype/StillImage" />
      </cc:Work>
    </rdf:RDF>
  </metadata>
  <defs
     id="defs14" />
  <sodipodi:namedview
     pagecolor="#ffffff"
     bordercolor="#666666"
     borderopacity="1"
     objecttolerance="10"
     gridtolerance="10"
     guidetolerance="10"
     inkscape:pageopacity="0"
     inkscape:pageshadow="2"
     inkscape:window-width="3440"
     inkscape:window-height="1377"
     id="namedview12"
     showgrid="false"
     inkscape:zoom="33.37544"
     inkscape:cx="9.3605658"
     inkscape:cy="9.2834398"
     inkscape:window-x="-8"
     inkscape:window-y="-8"
     inkscape:window-maximized="1"
     inkscape:current-layer="svg10" />
  <g
     id="g829">
    <g
       style="fill:#ffffff"
       fill="none"
       fill-rule="evenodd"
       id="g8">
      <g
         style="fill:#ffffff"
         fill="black"
         fill-rule="nonzero"
         id="g6">
        <g
           style="fill:#ffffff"
           id="g4">
          <path
             style="fill:#ffffff"
             id="path2"
             transform="translate(-675 -526) translate(675 525.5)"
             d="M17.857 20.5c1.183 0 2.143-.96 2.143-2.143V2.643C20 1.46 19.04.5 17.857.5H2.143C.96.5 0 1.46 0 2.643v15.714C0 19.54.96 20.5 2.143 20.5h15.714zM7.353 16.3c-1.661 0-3.201-.483-4.496-1.313.237.026.464.035.705.035 1.371 0 2.63-.464 3.634-1.25-1.285-.026-2.366-.87-2.736-2.03.45.066.857.066 1.321-.055-1.339-.272-2.343-1.45-2.343-2.874v-.036c.388.219.843.352 1.32.37C4.04 8.67 3.456 7.58 3.456 6.715V6.71c0-.545.143-1.045.398-1.478C5.295 7.01 7.46 8.17 9.888 8.295c-.415-1.987 1.072-3.599 2.858-3.599.843 0 1.602.353 2.138.925.66-.125 1.295-.371 1.857-.706-.219.679-.679 1.25-1.286 1.612.59-.063 1.161-.228 1.688-.456-.397.585-.897 1.103-1.469 1.518.009.125.009.255.009.38 0 3.87-2.946 8.33-8.33 8.33z" />
        </g>
      </g>
    </g>
    <rect
       y="1.9491525"
       x="2.3516948"
       height="15.105932"
       width="15.29661"
       id="rect823"
       style="fill:#ffffff;fill-opacity:1;stroke:none;stroke-width:1.00157475;stroke-linejoin:round;stroke-miterlimit:4;stroke-dasharray:none;stroke-dashoffset:0;stroke-opacity:1" />
    <g
       style="fill:#000000"
       id="g824"
       transform="matrix(0.02,0,0,0.02,-0.00509,-0.26999)">
      <path
         style="fill:#000000"
         d="M 764.166,348.371 H 236.319 v 71.031 h 527.847 z"
         id="path2-3"
         inkscape:connector-curvature="0" />
      <path
         style="fill:#000000"
         d="M 236.319,483.752 V 813.999 L 500.231,666.512 764.19,813.999 V 483.752 Z"
         id="path4"
         inkscape:connector-curvature="0" />
      <path
         style="fill:#000000"
         d="M 764.166,213 H 236.319 v 71.019 h 527.847 z"
         id="path6"
         inkscape:connector-curvature="0" />
    </g>
  </g>
</svg>
