<svg xmlns="http://www.w3.org/2000/svg" viewBox="0 0 24 24"><path d="M23.024 5.32a8.64 8.64 0 01-2.547.72 4.536 4.536 0 001.953-2.52c-.855.521-1.8.9-2.817 1.097a4.374 4.374 0 00-3.24-1.43 4.491 4.491 0 00-4.311 5.58 12.483 12.483 0 01-9.135-4.753 4.608 4.608 0 001.377 6.075 4.338 4.338 0 01-2.007-.576v.063c0 2.196 1.53 4.032 3.555 4.455a4.356 4.356 0 01-1.998.072c.567 1.81 2.205 3.123 4.14 3.16a8.748 8.748 0 01-6.57 1.89 12.312 12.312 0 006.795 2.033c8.154 0 12.6-6.93 12.6-12.933v-.585a9.137 9.137 0 002.205-2.349z"/></svg>