<svg xmlns="http://www.w3.org/2000/svg" viewBox="0 0 20 20"><path fill="#fff" d="M17.857 20C19.04 20 20 19.04 20 17.857V2.143C20 .96 19.04 0 17.857 0H2.143C.96 0 0 .96 0 2.143v15.714C0 19.04.96 20 2.143 20h15.714zM7.353 15.8a8.297 8.297 0 01-4.496-1.313c.237.026.464.035.705.035 1.371 0 2.63-.464 3.634-1.25a2.93 2.93 0 01-2.736-2.03c.45.066.857.066 1.321-.055a2.927 2.927 0 01-2.343-2.874v-.036a2.92 2.92 0 001.32.37C4.04 8.17 3.456 7.08 3.456 6.215V6.21c0-.545.143-1.045.398-1.478a8.305 8.305 0 006.034 3.063c-.415-1.987 1.072-3.599 2.858-3.599.843 0 1.602.353 2.138.925a5.736 5.736 0 001.857-.706 2.923 2.923 0 01-1.286 1.612 5.832 5.832 0 001.688-.456 6.142 6.142 0 01-1.469 1.518c.009.125.009.255.009.38 0 3.87-2.946 8.33-8.33 8.33z"/><path d="M2.352 1.949h15.297v15.106H2.352z" fill="#fff"/><path d="M5.066 3.99L4.26 6.053v8.432h2.87v1.525h1.615l1.525-1.525h2.332l3.14-3.14V3.99zm9.598 6.817l-1.794 1.794H10l-1.525 1.525v-1.525H6.053V5.066h8.611zM12.87 7.13v3.136h-1.076V7.13zm-2.87 0v3.136H8.924V7.13z" clip-rule="evenodd" fill-rule="evenodd"/></svg>