<svg xmlns="http://www.w3.org/2000/svg" width="20" height="20" viewBox="0 0 20 20">
    <g fill="none" fill-rule="evenodd">
        <g fill="#FFF" fill-rule="nonzero">
            <g>
                <path d="M17.857 20.5c1.183 0 2.143-.96 2.143-2.143V2.643C20 1.46 19.04.5 17.857.5H2.143C.96.5 0 1.46 0 2.643v15.714C0 19.54.96 20.5 2.143 20.5h15.714zM7.353 16.3c-1.661 0-3.201-.483-4.496-1.313.237.026.464.035.705.035 1.371 0 2.63-.464 3.634-1.25-1.285-.026-2.366-.87-2.736-2.03.45.066.857.066 1.321-.055-1.339-.272-2.343-1.45-2.343-2.874v-.036c.388.219.843.352 1.32.37C4.04 8.67 3.456 7.58 3.456 6.715V6.71c0-.545.143-1.045.398-1.478C5.295 7.01 7.46 8.17 9.888 8.295c-.415-1.987 1.072-3.599 2.858-3.599.843 0 1.602.353 2.138.925.66-.125 1.295-.371 1.857-.706-.219.679-.679 1.25-1.286 1.612.59-.063 1.161-.228 1.688-.456-.397.585-.897 1.103-1.469 1.518.009.125.009.255.009.38 0 3.87-2.946 8.33-8.33 8.33z" transform="translate(-675 -526) translate(675 525.5)"/>
            </g>
        </g>
    </g>
</svg>
