<svg xmlns="http://www.w3.org/2000/svg" width="29" height="21" viewBox="0 0 29 21">
    <g fill="none" fill-rule="evenodd">
        <g fill="#FFF" fill-rule="nonzero">
            <g>
                <path d="M19.791 19.899l.846-.034c1.967-.087 3.84-.23 4.702-.462 1.224-.329 2.188-1.259 2.515-2.49.552-2.074.592-6.24.595-6.824V9.95c-.003-.584-.043-4.75-.595-6.823-.327-1.232-1.29-2.202-2.515-2.531-.863-.233-2.735-.375-4.702-.462l-.846-.034C17.675.024 15.601.005 14.697 0h-.946c-.904.005-2.978.024-5.094.101l-.845.034c-1.967.087-3.84.23-4.703.462C1.885.926.921 1.897.594 3.128.042 5.202.003 9.367 0 9.951v.138c.003.584.042 4.75.594 6.823.327 1.232 1.291 2.162 2.515 2.491.863.233 2.736.375 4.703.462l.845.034c2.116.077 4.19.096 5.094.101h.946c.905-.005 2.978-.024 5.094-.101zm-8.476-5.649V5.79l7.435 4.23-7.435 4.23z" transform="translate(-184 -527) translate(184 527.5)"/>
            </g>
        </g>
    </g>
</svg>
